a<svg width="16" height="16" viewBox="0 0 16 16" fill="none" xmlns="http://www.w3.org/2000/svg">
<rect width="16" height="16" fill="black"/>
<path d="M12.3333 8.96L10.7288 10.8084C10.6884 10.855 10.6346 10.888 10.5747 10.9029L6.30158 11.9664C6.21601 11.9877 6.1254 11.9703 6.05384 11.9188L3.68145 10.2106C3.57379 10.1331 3.52982 9.9941 3.57334 9.86878L4 8.64M12.3333 8.96L12.4896 4.45995C12.4953 4.29431 12.3657 4.15539 12.2 4.14972L7.98087 4.00506C7.88784 4.00187 7.7986 4.04205 7.73931 4.11381L4 8.64M12.3333 8.96L6.49311 10.6731C6.39373 10.7023 6.28635 10.6781 6.20904 10.6092L4 8.64" stroke="#FCFCF7" stroke-width="0.8"/>
</svg>
