<svg width="38" height="76" viewBox="0 0 38 76" fill="none" xmlns="http://www.w3.org/2000/svg">
<path d="M30.8421 18.7718L26.7224 23.745C26.3211 24.2293 25.7778 24.5753 25.1692 24.7341L14.7207 27.4591C13.8333 27.6905 12.8888 27.5034 12.1568 26.951L7.45453 23.4033C6.4278 22.6287 6.00909 21.2858 6.41364 20.0649L7.15789 17.8188M30.8421 18.7718L31.2167 7.46651C31.2715 5.81383 29.9786 4.42847 28.3261 4.3691L19.5738 4.05465C18.6177 4.0203 17.7026 4.44404 17.1102 5.19534L7.15789 17.8188M30.8421 18.7718L15.4496 23.5031C14.4227 23.8188 13.3054 23.5612 12.5203 22.8279L7.15789 17.8188M21.8421 36.8792L25.4988 36.2104C26.4714 36.0325 27.4692 36.3452 28.1662 37.0464L30.4893 39.3833C31.2868 40.1856 31.5652 41.3682 31.2094 42.4419L30.1841 45.5361C29.9955 46.1052 29.6408 46.6048 29.1656 46.9703L22.1954 52.3323C21.9612 52.5124 21.7016 52.657 21.4251 52.7613L11.3248 56.5715C10.7699 56.7809 10.1653 56.821 9.58756 56.6869L5.63105 55.7684C4.79462 55.5742 4.08148 55.031 3.67219 54.2761L2.45465 52.0306C1.86353 50.9405 2.00413 49.5989 2.80842 48.655L4.31579 46.8859L9.52632 41.6443L11.2942 39.8658C11.6868 39.4709 12.1816 39.193 12.7231 39.0633L21.8421 36.8792ZM20.4211 26.8725L25.5219 25.6883C26.205 25.5298 26.9219 25.6155 27.5484 25.9305L29.6638 26.9946C30.6767 27.504 31.3158 28.5409 31.3158 29.6747V30.1757C31.3158 31.0984 30.8912 31.9698 30.1644 32.5384L27.5449 34.588C27.2202 34.842 26.8466 35.0264 26.4475 35.1297L11.1738 39.0807C10.7136 39.1997 10.2318 39.2077 9.76798 39.104L8.11743 38.735C6.95826 38.4759 6.06112 37.5572 5.82951 36.3923L5.67022 35.5911C5.42555 34.3604 5.97259 33.1075 7.0415 32.4504L13.3522 28.5708C13.6416 28.3929 13.9591 28.2654 14.2912 28.1939L20.4211 26.8725ZM30.7804 50.4205V50.4205C31.1287 50.911 31.3158 51.4977 31.3158 52.0993V53.2039C31.3158 54.5416 30.4301 55.7176 29.1445 56.0872L27.1134 56.6709C25.7215 57.071 24.248 56.3819 23.6628 55.0572V55.0572C23.1447 53.8845 23.4588 52.5108 24.435 51.6799L26.5364 49.8911C27.8323 48.7881 29.7951 49.0329 30.7804 50.4205ZM1.14379 63.8275L1.37791 67.3602C1.43842 68.2732 1.91231 69.1087 2.66489 69.6292L8.36184 73.5692C8.81368 73.8817 9.34266 74.0641 9.89107 74.0966L24.4571 74.9585C24.9181 74.9858 25.3791 74.9063 25.8043 74.7262L33.1911 71.5974C33.817 71.3323 34.3343 70.8625 34.6583 70.265L36.3497 67.1457C36.7629 66.3837 36.8262 65.4801 36.5234 64.6679L34.7409 59.8861C34.3784 58.9137 33.539 58.1976 32.5216 57.9929L18.4584 55.1635C17.8846 55.0481 17.2897 55.103 16.7468 55.3214L3.01733 60.846C1.81389 61.3302 1.05801 62.5331 1.14379 63.8275Z" stroke="#1A1C20" stroke-width="2"/>
</svg>
